<svg width="88" height="98" viewBox="0 0 88 98" fill="none" xmlns="http://www.w3.org/2000/svg">
<path d="M6.99849 52.0543L6.99849 49.649H15.417V52.0543H12.5383L12.5383 63.2285H9.8678L9.8678 52.0543H6.99849ZM15.6788 63.2285L15.6788 49.649H18.3398V55.0278H22.0803V49.649L24.7602 49.649L24.7602 63.2285H22.0803L22.0803 57.4141H18.3398L18.3398 63.2285H15.6788ZM26.0826 63.2285L26.0826 49.649H33.4121V52.0353H28.7436V55.0278H32.8534V57.4331H28.7436L28.7436 60.8611H33.4121V63.2285L26.0826 63.2285ZM37.0985 56.4577C37.0985 55.435 37.1963 54.5101 37.392 53.6831C37.5878 52.856 37.8876 52.1237 38.2917 51.4861C38.6957 50.8485 39.2386 50.356 39.9205 50.0088C40.6023 49.6553 41.4009 49.4785 42.3163 49.4785C45.0499 49.4785 46.584 51.0821 46.9186 54.2891H44.3333C44.2639 53.5884 44.0587 53.017 43.7178 52.5751C43.3769 52.1269 42.8971 51.9028 42.2784 51.9028C41.4577 51.9028 40.8453 52.3036 40.4413 53.1054C40.0372 53.9009 39.8352 55.0183 39.8352 56.4577C39.8352 57.9097 40.0372 59.0303 40.4413 59.8194C40.8516 60.6023 41.4766 60.9937 42.3163 60.9937C42.9792 60.9937 43.4905 60.7475 43.8504 60.255C44.2165 59.7563 44.4186 59.0682 44.4564 58.1906H42.1458V55.9558H47.0322V57.3762C47.0322 59.2639 46.6345 60.7411 45.839 61.8081C45.0499 62.8687 43.8756 63.399 42.3163 63.399C41.4072 63.399 40.6117 63.2254 39.9299 62.8781C39.2481 62.5246 38.702 62.0322 38.2917 61.4009C37.8876 60.7632 37.5878 60.0341 37.392 59.2134C37.1963 58.3863 37.0985 57.4678 37.0985 56.4577ZM47.6159 63.2285V49.649H52.0761C53.2567 49.649 54.2321 50.0656 55.0023 50.899C55.7788 51.7323 56.167 52.7456 56.167 53.9387C56.167 54.8036 55.9934 55.5612 55.6462 56.2115C55.299 56.8554 54.816 57.3573 54.1973 57.7172L56.7542 63.0391V63.2285H53.828L51.6689 58.2664H50.2769V63.2285H47.6159ZM50.2769 55.88H51.7542C52.2782 55.88 52.6917 55.7127 52.9947 55.3781C53.304 55.0372 53.4587 54.5574 53.4587 53.9387C53.4587 53.3579 53.2977 52.8971 52.9758 52.5562C52.6538 52.2089 52.2466 52.0353 51.7542 52.0353H50.2769V55.88ZM56.9023 63.2285V49.649H64.2318V52.0353H59.5633V55.0278L63.6731 55.0278V57.4331L59.5633 57.4331V60.8611L64.2318 60.8611V63.2285L56.9023 63.2285ZM63.8591 63.2285V63.0391L67.2871 49.649H70.7436L74.1905 63.0391V63.2285H71.3023L70.6962 60.3971H67.2303L66.6242 63.2285H63.8591ZM67.7511 58.0297H70.1754L68.9917 52.5278H68.9348L67.7511 58.0297ZM72.3689 52.0543V49.649H80.7875V52.0543H77.9087V63.2285H75.2383V52.0543H72.3689ZM1.36743 79.2285L1.36743 65.649H5.82765C7.00821 65.649 7.98359 66.0656 8.75379 66.899C9.53031 67.7323 9.91856 68.7456 9.91856 69.9387C9.91856 70.8036 9.74495 71.5612 9.39773 72.2115C9.05051 72.8554 8.56755 73.3573 7.94887 73.7172L10.5057 79.0391V79.2285H7.57955L5.42046 74.2664H4.02841L4.02841 79.2285H1.36743ZM4.02841 71.88H5.50568C6.02967 71.88 6.44318 71.7127 6.74621 71.3781C7.05556 71.0372 7.21023 70.5574 7.21023 69.9387C7.21023 69.3579 7.04924 68.8971 6.72728 68.5562C6.40531 68.2089 5.99811 68.0353 5.50568 68.0353H4.02841V71.88ZM10.6538 79.2285L10.6538 65.649H17.9833V68.0353H13.3148V71.0278H17.4246V73.4331H13.3148L13.3148 76.8611H17.9833V79.2285H10.6538ZM17.8189 74.7304H20.5178C20.5367 76.2582 21.1112 77.0221 22.2413 77.0221C22.759 77.0221 23.1599 76.88 23.4439 76.5959C23.728 76.3118 23.8701 75.9236 23.8701 75.4312C23.8701 74.6799 23.4629 74.1307 22.6485 73.7834L20.925 73.0259C19.1384 72.2746 18.2451 71.0309 18.2451 69.2948C18.2451 68.1584 18.6207 67.2399 19.372 66.5391C20.1232 65.8321 21.086 65.4785 22.2602 65.4785C23.5544 65.4785 24.5614 65.8731 25.2811 66.6622C26.0071 67.4514 26.3764 68.4993 26.389 69.8062H23.6996C23.6807 68.5246 23.2009 67.8838 22.2602 67.8838C21.8562 67.8838 21.5374 68.0164 21.3038 68.2815C21.0765 68.5404 20.9629 68.8781 20.9629 69.2948C20.9629 69.9766 21.3511 70.4817 22.1277 70.81L23.6617 71.4728C25.6251 72.3062 26.6068 73.6256 26.6068 75.4312C26.6068 76.637 26.2343 77.5997 25.4894 78.3194C24.7508 79.0391 23.6681 79.399 22.2413 79.399C20.7514 79.399 19.6434 78.9886 18.9174 78.1679C18.1977 77.3472 17.8316 76.2014 17.8189 74.7304ZM27.0674 79.2285V65.649H29.7473V79.2285H27.0674ZM31.0697 79.2285V65.649H34.564C35.7446 65.649 36.7578 65.9331 37.6038 66.5012C38.4497 67.0694 39.0842 67.8617 39.5072 68.8781C39.9365 69.8882 40.1511 71.0751 40.1511 72.4387C40.1511 73.2026 40.0785 73.9223 39.9333 74.5978C39.7944 75.2733 39.5735 75.8952 39.2705 76.4634C38.9674 77.0315 38.5981 77.5208 38.1625 77.9312C37.7269 78.3352 37.2029 78.654 36.5905 78.8876C35.9782 79.1149 35.3027 79.2285 34.564 79.2285H31.0697ZM33.5981 76.8422H34.3462C36.4043 76.8422 37.4333 75.3743 37.4333 72.4387C37.4333 70.9867 37.1713 69.8946 36.6473 69.1622C36.1297 68.4236 35.3626 68.0543 34.3462 68.0543H33.5981L33.5981 76.8422ZM40.7538 79.2285L40.7538 65.649H48.0833V68.0353H43.4148L43.4148 71.0278H47.5246V73.4331H43.4148V76.8611H48.0833V79.2285H40.7538ZM48.828 79.2285L48.828 65.649H52.0288L55.561 74.2475H55.6178L55.6178 65.649H58.2788L58.2788 79.2285L55.0591 79.2285L51.5269 70.6963H51.4511V79.2285H48.828ZM58.5689 68.0543V65.649H66.9875V68.0543H64.1087V79.2285H61.4383L61.4383 68.0543H58.5689ZM67.2492 79.2285V65.649H69.9292V79.2285H67.2492ZM70.1341 79.2285V79.0391L73.5621 65.649H77.0186L80.4655 79.0391V79.2285H77.5773L76.9712 76.3971H73.5053L72.8992 79.2285H70.1341ZM74.0261 74.0297H76.4504L75.2667 68.5278H75.2099L74.0261 74.0297ZM80.6515 79.2285V65.649H83.3125V76.8422H87.536V79.2285H80.6515ZM21.8117 95.2285V81.649H24.4727V87.0278H28.2133V81.649H30.8932V95.2285H28.2133V89.4141H24.4727V95.2285H21.8117ZM31.117 97.6149L35.8992 80.9387H38.4087V81.1281L33.5792 97.8043H31.117V97.6149ZM37.4867 95.2285V95.0391L40.9148 81.649H44.3712L47.8182 95.0391V95.2285H44.9299L44.3239 92.3971H40.858L40.2519 95.2285H37.4867ZM41.3788 90.0297H43.803L42.6193 84.5278H42.5625L41.3788 90.0297ZM47.0383 88.4577C47.0383 87.0625 47.2277 85.8472 47.6064 84.8118C47.9852 83.7702 48.5629 82.9558 49.3394 82.3687C50.1222 81.7752 51.0629 81.4785 52.1614 81.4785C52.9758 81.4785 53.6923 81.6174 54.311 81.8952C54.936 82.1666 55.4316 82.5423 55.7977 83.0221C56.1702 83.5019 56.448 84.0448 56.6311 84.6509C56.8205 85.2506 56.9215 85.9072 56.9341 86.6206H54.292C54.292 85.8567 54.1121 85.2127 53.7523 84.6887C53.3924 84.1648 52.8621 83.9028 52.1614 83.9028C51.4038 83.9028 50.8167 84.3005 50.4 85.0959C49.9833 85.8914 49.775 87.012 49.775 88.4577C49.775 89.8845 49.9802 90.9956 50.3905 91.791C50.8009 92.5802 51.3912 92.9747 52.1614 92.9747C52.8369 92.9747 53.3609 92.738 53.7333 92.2645C54.1058 91.7847 54.2984 91.1629 54.311 90.399H56.9341C56.9215 91.1187 56.8205 91.7752 56.6311 92.3687C56.448 92.9558 56.1702 93.4798 55.7977 93.9406C55.4253 94.4015 54.9297 94.7613 54.311 95.0202C53.6923 95.2727 52.9758 95.399 52.1614 95.399C51.0566 95.399 50.1128 95.1023 49.3299 94.5088C48.5534 93.9154 47.9758 93.1041 47.597 92.0751C47.2245 91.0461 47.0383 89.8403 47.0383 88.4577ZM56.7792 88.4577C56.7792 87.0625 56.9686 85.8472 57.3473 84.8118C57.7261 83.7702 58.3038 82.9558 59.0803 82.3687C59.8631 81.7752 60.8038 81.4785 61.9023 81.4785C62.7167 81.4785 63.4332 81.6174 64.0519 81.8952C64.6769 82.1666 65.1725 82.5423 65.5386 83.0221C65.9111 83.5019 66.1889 84.0448 66.372 84.6509C66.5614 85.2506 66.6624 85.9072 66.675 86.6206L64.033 86.6206C64.033 85.8567 63.853 85.2127 63.4932 84.6887C63.1333 84.1648 62.603 83.9028 61.9023 83.9028C61.1447 83.9028 60.5576 84.3005 60.1409 85.0959C59.7242 85.8914 59.5159 87.012 59.5159 88.4577C59.5159 89.8845 59.7211 90.9956 60.1314 91.791C60.5418 92.5802 61.1321 92.9747 61.9023 92.9747C62.5778 92.9747 63.1018 92.738 63.4742 92.2645C63.8467 91.7847 64.0393 91.1629 64.0519 90.399L66.675 90.399C66.6624 91.1187 66.5614 91.7752 66.372 92.3687C66.1889 92.9558 65.9111 93.4798 65.5386 93.9406C65.1662 94.4015 64.6706 94.7613 64.0519 95.0202C63.4332 95.2727 62.7167 95.399 61.9023 95.399C60.7975 95.399 59.8537 95.1023 59.0708 94.5088C58.2943 93.9154 57.7167 93.1041 57.3379 92.0751C56.9654 91.0461 56.7792 89.8403 56.7792 88.4577Z" fill="black"/>
<path d="M57.8226 9.17699C59.6239 10.9782 60.0665 14.217 58.7776 18.3908C57.5075 22.5036 54.6338 27.1887 50.4111 31.4115C46.1884 35.6342 41.5033 38.5078 37.3904 39.778C33.2164 41.067 29.9773 40.625 28.1759 38.8237C26.3747 37.0224 25.9326 33.7832 27.2216 29.6092C28.4918 25.4964 31.3654 20.8112 35.5881 16.5885C39.8109 12.3658 44.496 9.49211 48.6088 8.22199C52.7827 6.9331 56.0214 7.37578 57.8226 9.17699Z" stroke="url(#paint0_linear_451_943)" stroke-width="2.49565"/>
<path d="M28.1755 9.17663C29.9768 7.37538 33.2155 6.93275 37.3893 8.22163C41.5021 9.49175 46.1873 12.3655 50.41 16.5881C54.6328 20.8109 57.5064 25.496 58.7765 29.6088C60.0656 33.7829 59.6235 37.022 57.8222 38.8233C56.0209 40.6246 52.7817 41.0667 48.6077 39.7776C44.4949 38.5074 39.8098 35.6339 35.587 31.4111C31.3644 27.1884 28.4906 22.5032 27.2205 18.3904C25.9316 14.2166 26.3743 10.9779 28.1755 9.17663Z" stroke="url(#paint1_linear_451_943)" stroke-width="2.49565"/>
<path d="M63.9619 23.9996C63.9619 26.547 61.9848 29.1501 58.1221 31.1901C54.3158 33.2001 48.9708 34.481 42.999 34.4811C37.0272 34.4811 31.6823 33.2001 27.876 31.1901C24.013 29.1501 22.0352 26.5471 22.0352 23.9996C22.0352 21.4522 24.013 18.8492 27.876 16.8092C31.6823 14.7992 37.0272 13.5182 42.999 13.5182C48.9708 13.5182 54.3158 14.7991 58.1221 16.8092C61.9848 18.8492 63.9619 21.4523 63.9619 23.9996Z" stroke="url(#paint2_linear_451_943)" stroke-width="2.49565"/>
<g clip-path="url(#clip0_451_943)">
<path d="M42.7576 29.5757C42.7576 28.7709 42.6025 28.0145 42.2922 27.3066C41.9916 26.5987 41.5794 25.983 41.0558 25.4593C40.5322 24.9357 39.9164 24.5236 39.2085 24.223C38.5007 23.9127 37.7443 23.7575 36.9395 23.7575C37.7443 23.7575 38.5007 23.6072 39.2085 23.3066C39.9164 22.9963 40.5322 22.5793 41.0558 22.0557C41.5794 21.5321 41.9916 20.9163 42.2922 20.2084C42.6025 19.5005 42.7576 18.7442 42.7576 17.9393C42.7576 18.7442 42.9079 19.5005 43.2085 20.2084C43.5188 20.9163 43.9358 21.5321 44.4595 22.0557C44.9831 22.5793 45.5989 22.9963 46.3067 23.3066C47.0146 23.6072 47.771 23.7575 48.5758 23.7575C47.771 23.7575 47.0146 23.9127 46.3067 24.223C45.5989 24.5236 44.9831 24.9357 44.4595 25.4593C43.9358 25.983 43.5188 26.5987 43.2085 27.3066C42.9079 28.0145 42.7576 28.7709 42.7576 29.5757Z" fill="black"/>
</g>
<defs>
<linearGradient id="paint0_linear_451_943" x1="58.7052" y1="8.29455" x2="27.2936" y2="39.7061" gradientUnits="userSpaceOnUse">
<stop stop-color="#2E8C6B"/>
<stop offset="1" stop-color="#293D52"/>
</linearGradient>
<linearGradient id="paint1_linear_451_943" x1="27.2931" y1="8.29407" x2="58.7046" y2="39.7056" gradientUnits="userSpaceOnUse">
<stop stop-color="#FF774D"/>
<stop offset="1" stop-color="#FF4DA6"/>
</linearGradient>
<linearGradient id="paint2_linear_451_943" x1="65.21" y1="23.9997" x2="20.7873" y2="23.9997" gradientUnits="userSpaceOnUse">
<stop stop-color="#A373F2"/>
<stop offset="1" stop-color="#E7B400"/>
</linearGradient>
<clipPath id="clip0_451_943">
<rect width="11.6364" height="11.6364" fill="white" transform="translate(36.9395 17.9393)"/>
</clipPath>
</defs>
</svg>
